<?xml version="1.0" encoding="utf-8"?>
<!-- Generator: Adobe Illustrator 26.0.1, SVG Export Plug-In . SVG Version: 6.00 Build 0)  -->
<svg version="1.1" id="hospital" xmlns="http://www.w3.org/2000/svg" xmlns:xlink="http://www.w3.org/1999/xlink" x="0px" y="0px"
	 viewBox="0 0 2200 2200" style="enable-background:new 0 0 2200 2200;" xml:space="preserve">
<style type="text/css">
	.st0{fill:#9D4EDD;}
	.st1{fill:#7B2CBF;}
	.st2{fill:#E0AAFF;}
	.st3{fill:#9C4EDC;}
</style>
<g>
	<path class="st0" d="M1668,863.9c0.3,148.5-53.8,284.3-143.5,388.7c-151.3,176.1-291.5,361.5-414.7,558.2l0,0
		c-17,27.2-56.7,27.2-73.7,0l-15.3-24.4c-117.6-187.7-251.9-364-397.2-531.2c-90.8-104.4-145.7-240.9-145.7-390.2
		c0-328.3,265.8-594.4,593.9-595C1399.4,269.4,1667.4,536.3,1668,863.9z"/>
	<circle class="st1" cx="1072.9" cy="869.6" r="476.5"/>
	<circle class="st2" cx="1072.9" cy="869.6" r="401"/>
</g>
<g>
	<path class="st3" d="M1219.4,756.3c-28.8,4-54.4-0.2-67.5-33.4c-11.8-29.7-50.1-34.5-86.3-30.5c-32.4,3.6-56,17.5-60.7,44.6
		c-5.1,29.4,17.6,45.6,48.1,56.7c51.8,18.9,108.7,28.3,159,50.3c52.5,23,86.3,54.7,84.2,104.1c-2.1,50.3-45.4,86.9-125.4,103.7
		c-28.5,6-53.2,8.2-48.2,40.8c4.1,26.5-28.4,17.8-47.7,19.2c-20.5,1.5-40.7-1.5-36.2-22.1c6.2-28.3-16.1-32.5-42.8-36.9
		c-72.7-12.2-125.5-41.7-143.9-101.2c-6.9-22.1,3.4-32,31.6-31.8c41.3,0.2,82.9-8.4,102.6,37.7c15.5,36.1,78.7,49.1,125,35.9
		c25-7.1,41.8-19.6,46.2-40.2c4.6-21.7-5.3-39.5-28.5-52.4c-20-11.1-42.8-17.7-66.1-23.6c-42.1-10.8-84.1-22.1-123.3-38.8
		c-48.2-20.6-74.2-51.5-73.6-94.7c0.5-43.6,29.2-73.4,77.9-92.5c15.3-6,31.5-11.4,48-14.2c29.8-4.9,52.7-9.6,47.5-41.4
		c-3.9-24.2,25.7-18,44.2-18.6c18.3-0.6,43-2.6,39.4,19.3c-4.8,28.8,15.7,34.1,44.3,39.9c52.1,10.6,93.6,33,114.8,73.8
		c19.5,37.4,12.7,45.8-38.2,46.1C1238.2,756.3,1232.4,756.3,1219.4,756.3z"/>
</g>
</svg>
