<?xml version="1.0" encoding="utf-8"?>
<!-- Generator: Adobe Illustrator 26.0.1, SVG Export Plug-In . SVG Version: 6.00 Build 0)  -->
<svg version="1.1" id="hospital" xmlns="http://www.w3.org/2000/svg" xmlns:xlink="http://www.w3.org/1999/xlink" x="0px" y="0px"
	 viewBox="0 0 2200 2200" style="enable-background:new 0 0 2200 2200;" xml:space="preserve">
<style type="text/css">
	.st0{fill:#52B788;}
	.st1{fill:#40916C;}
	.st2{fill:#D8F3DC;}
	.st3{fill:#52B687;}
	.st4{fill:#53B788;}
</style>
<g>
	<path class="st0" d="M1681.5,863.9c0.3,148.5-53.8,284.3-143.5,388.7c-151.3,176.1-291.5,361.5-414.7,558.2l0,0
		c-17,27.2-56.7,27.2-73.7,0l-15.3-24.4c-117.6-187.7-251.9-364-397.2-531.2c-90.8-104.4-145.7-240.9-145.7-390.2
		c0-328.3,265.8-594.4,593.9-595C1412.9,269.4,1680.9,536.3,1681.5,863.9z"/>
	<circle class="st1" cx="1086.5" cy="869.6" r="476.5"/>
	<circle class="st2" cx="1086.5" cy="869.6" r="401"/>
</g>
<g>
	<path class="st3" d="M1104.9,887.3c70,0,140,0.6,210-0.3c25.9-0.4,37.7,7,36.3,30.1c-1.4,23.1-0.3,46.4-0.4,69.6
		c0,11.9-4.4,21.7-20.3,21.9c-13.8,0.2-20.6-8-20-19c0.8-13.9-7.8-15.3-20.9-15.3c-135.5,0.2-270.9,0.2-406.4,0
		c-12.8,0-21.7,1-21.2,15.1c0.5,12.5-7.7,20.9-23.1,19c-15.6-2-17.3-13.1-17.2-24.5c0.1-58,0-116,0-174c0-34.8,0.1-69.6,0-104.4
		c0-13.3,1.2-27.2,21.7-26.4c18,0.7,19,13.7,19,25.9c-0.1,52.2,1,104.4-0.5,156.6c-0.6,19.8,5.1,26.6,29.6,26.2
		C962.6,886.4,1033.8,887.3,1104.9,887.3z"/>
	<path class="st3" d="M1184.7,852.5c-38.4,0-76.8,0.2-115.2-0.2c-8.1-0.1-21.6,3.8-22.5-6.8c-1.9-24.1-1.3-48.3-0.4-72.4
		c0.4-10,11.4-7.5,18.6-7.5c68.9-0.1,137.9-1.2,206.8,0.5c42.9,1.1,74.3,47,57.8,79.5c-5.2,10.3-15.1,6.6-23.1,6.7
		C1266,852.7,1225.4,852.5,1184.7,852.5z"/>
	<path class="st4" d="M954.9,765.5c26.8,0.4,49.4,19.8,49.8,42.7c0.4,24.1-23.5,44.5-51.6,44.1c-28.1-0.4-51.2-21.6-49.7-45.6
		C904.9,783.8,928.2,765.1,954.9,765.5z"/>
</g>
</svg>
