<?xml version="1.0" encoding="utf-8"?>
<!-- Generator: Adobe Illustrator 26.0.1, SVG Export Plug-In . SVG Version: 6.00 Build 0)  -->
<svg version="1.1" id="hospital" xmlns="http://www.w3.org/2000/svg" xmlns:xlink="http://www.w3.org/1999/xlink" x="0px" y="0px"
	 viewBox="0 0 2200 2200" style="enable-background:new 0 0 2200 2200;" xml:space="preserve">
<style type="text/css">
	.st0{fill:#FF7AA2;}
	.st1{fill:#E05780;}
	.st2{fill:#FFE0E9;}
	.st3{fill:#FE7AA2;}
	.st4{fill:#FEFEFE;}
</style>
<g>
	<path class="st0" d="M1668,863.9c0.3,148.5-53.8,284.3-143.5,388.7c-151.3,176.1-291.5,361.5-414.7,558.2l0,0
		c-17,27.2-56.7,27.2-73.7,0l-15.3-24.4c-117.6-187.7-251.9-364-397.2-531.2c-90.8-104.4-145.7-240.9-145.7-390.2
		c0-328.3,265.8-594.4,593.9-595C1399.4,269.4,1667.4,536.3,1668,863.9z"/>
	<circle class="st1" cx="1072.9" cy="869.6" r="476.5"/>
	<circle class="st2" cx="1072.9" cy="869.6" r="401"/>
</g>
<g>
	<path class="st3" d="M973.3,1084c-52.5-3.3-99.6-34.3-128.2-90.1c-29.1-56.8-25.7-115.1,14.5-164.4
		c61.7-75.7,130.7-145.3,206.3-207c61.7-50.3,147.9-40.4,205.3,17.4c57.3,57.8,66,143.7,16,206.3
		c-58.1,72.7-126.7,135.7-194.7,198.9C1062.9,1072.6,1025.5,1085.3,973.3,1084z"/>
	<path class="st4" d="M903.6,921.6c-0.7,19.7,8.2,36.7,15.1,54.3c4.9,12.6-0.4,22.4-11.5,27.4c-11.5,5.2-16.3-5.7-21.6-13.1
		c-30.3-42-27.4-107.3,11.9-149.2c58.3-62,118.1-122.8,180.4-180.7c48.7-45.3,121.5-40.8,167,4.4c45.5,45.3,48.3,116.1,6.6,168.1
		c-65.5,81.7-65.5,81.7-137.7,9.2c-78.1-78.4-78-78.3-160.7-2.4C928.5,862.3,902.7,883.8,903.6,921.6z"/>
</g>
</svg>
