<?xml version="1.0" encoding="utf-8"?>
<!-- Generator: Adobe Illustrator 26.0.1, SVG Export Plug-In . SVG Version: 6.00 Build 0)  -->
<svg version="1.1" id="hospital" xmlns="http://www.w3.org/2000/svg" xmlns:xlink="http://www.w3.org/1999/xlink" x="0px" y="0px"
	 viewBox="0 0 2200 2200" style="enable-background:new 0 0 2200 2200;" xml:space="preserve">
<style type="text/css">
	.st0{fill:#FF6D00;}
	.st1{fill:#FF5400;}
	.st2{fill:#FFC971;}
	.st3{fill:#FE6D01;}
	.st4{fill:#FE6E03;}
</style>
<g>
	<path class="st0" d="M1668,863.9c0.3,148.5-53.8,284.3-143.5,388.7c-151.3,176.1-291.5,361.5-414.7,558.2l0,0
		c-17,27.2-56.7,27.2-73.7,0l-15.3-24.4c-117.6-187.7-251.9-364-397.2-531.2c-90.8-104.4-145.7-240.9-145.7-390.2
		c0-328.3,265.8-594.4,593.9-595C1399.4,269.4,1667.4,536.3,1668,863.9z"/>
	<circle class="st1" cx="1072.9" cy="869.6" r="476.5"/>
	<circle class="st2" cx="1072.9" cy="869.6" r="401"/>
</g>
<g>
	<path class="st3" d="M934.3,798.3c-7.1-45.7-38.2-68.2-59.1-99.6c-6.1-9.2-22.4-17.2-9.3-31.9c13.3-14.9,20.6,3.4,28.1,10.8
		c26.3,25.8,51.8,52.7,82.2,73.7c-12.4-38.3-41.5-59.9-62.8-88.7c-7-9.5-28.2-16.5-13.1-34c13.8-15.9,23.6,4.2,32.2,12.3
		c30.2,28.2,59,58.4,88.7,87.2c20.7,20.1,38.7,39.1,20.5,74.1c-11.4,21.8,9.9,30.5,19.9,43.1c7.7,9.7,16.6,13.9,26,2.6
		c10.3-12.3,24.8-19.2,21.7-43.5c-12.3-94,62.4-181.5,147.9-176.2c41.5,2.6,64.7,32.9,62.8,81.8c-3.8,95.5-73.5,164.7-158.2,154.5
		c-19.3-2.3-25.7,12-35,23.1c-57.9,69.1-116.5,137.6-172.4,208.6c-20.6,26.1-34.6,21.5-53,0.6c-17.6-19.9-20-35.6,1.3-56
		c38.7-37.2,75.4-77.1,112.2-116.7c8.1-8.7,26.6-16.7,11.7-34.5c-11-13-19.7-38.8-41.3-24.7c-29.2,19-45.4,1.5-62.6-20.8
		c-28.6-37.1-58-73.3-86.7-110.3c-6.3-8.1-16-17.1-4.5-29c12-12.5,17.9,1,24.7,8.3C882.2,741.4,908.2,769.9,934.3,798.3z"/>
	<path class="st4" d="M1134.4,926.4c2.6,1.4,5.7,2.2,7.7,4.4c39.6,41,80.1,81,118,123.9c16.4,18.5-3.3,32.8-13.4,44.3
		c-10.5,11.9-22.9,28.5-39.9,7.7c-32.5-39.7-65.7-78.8-97.7-119.1C1100,976.1,1121.2,927,1134.4,926.4z"/>
</g>
</svg>
